<svg width="15" height="15" viewBox="0 0 15 15" fill="none" xmlns="http://www.w3.org/2000/svg">
<circle cx="7.5" cy="7.5" r="7.25" stroke="black" stroke-width="0.5"/>
<path d="M9.49865 13.5938C9.3619 13.5938 9.23075 13.5395 9.13405 13.4428C9.03735 13.3461 8.98302 13.2149 8.98302 13.0782V11.7375C8.99905 11.5833 8.98254 11.4275 8.93458 11.2801C8.88662 11.1326 8.80827 10.9969 8.70459 10.8816C8.64039 10.812 8.59661 10.726 8.57805 10.6332C8.55948 10.5403 8.56685 10.4441 8.59934 10.3552C8.63183 10.2662 8.68819 10.1879 8.76224 10.1289C8.83629 10.0699 8.92516 10.0324 9.01912 10.0205C10.2772 9.87099 11.4374 9.4688 11.4374 7.28771C11.4378 6.8804 11.3176 6.4821 11.0919 6.14302C10.8837 5.83087 10.8077 5.44892 10.8805 5.08083C10.927 4.84071 10.927 4.59391 10.8805 4.3538C10.4944 4.48434 10.1309 4.67394 9.80287 4.91583C9.74085 4.95987 9.66985 4.98965 9.59497 5.00302C9.52009 5.01639 9.44317 5.01303 9.36974 4.99317C8.43921 4.73024 7.45403 4.73024 6.52349 4.99317C6.45006 5.01303 6.37315 5.01639 6.29827 5.00302C6.22338 4.98965 6.15239 4.95987 6.09037 4.91583C5.76034 4.67113 5.39295 4.48135 5.0024 4.3538C4.95336 4.59366 4.95336 4.84097 5.0024 5.08083C5.06999 5.45355 4.99052 5.83796 4.78068 6.15333C4.556 6.49479 4.43593 6.89443 4.43521 7.30317C4.43521 9.30896 5.40459 9.84521 6.85865 10.0308C6.9538 10.0426 7.04377 10.0807 7.11846 10.1409C7.19314 10.201 7.24959 10.2807 7.28146 10.3711C7.31144 10.4589 7.31721 10.5531 7.29815 10.6438C7.2791 10.7346 7.23592 10.8185 7.17318 10.8868C7.07289 10.994 6.99591 11.1208 6.9471 11.2592C6.89829 11.3977 6.87871 11.5447 6.88959 11.6911V13.0782C6.88959 13.2149 6.83526 13.3461 6.73856 13.4428C6.64187 13.5395 6.51071 13.5938 6.37396 13.5938C6.23721 13.5938 6.10606 13.5395 6.00936 13.4428C5.91266 13.3461 5.85834 13.2149 5.85834 13.0782V12.7843C5.35167 12.8425 4.83845 12.7746 4.36436 12.5866C3.89027 12.3986 3.47001 12.0963 3.14099 11.7066C2.97187 11.5192 2.76896 11.3652 2.54287 11.2529C2.47719 11.2359 2.41548 11.2062 2.36128 11.1655C2.30708 11.1247 2.26143 11.0736 2.22696 11.0152C2.19249 10.9568 2.16986 10.8922 2.16036 10.825C2.15086 10.7579 2.15469 10.6895 2.17162 10.6238C2.18855 10.5581 2.21825 10.4964 2.25902 10.4422C2.2998 10.388 2.35085 10.3424 2.40926 10.3079C2.46767 10.2734 2.53231 10.2508 2.59947 10.2413C2.66663 10.2318 2.735 10.2356 2.80068 10.2525C3.19732 10.397 3.55174 10.638 3.83193 10.9538C4.34756 11.4694 4.86318 11.9232 5.84287 11.7375C5.82564 11.4607 5.86602 11.1833 5.96146 10.9229C4.89927 10.6547 3.38334 9.89161 3.38334 7.31349C3.38198 6.7028 3.56139 6.10536 3.89896 5.59646C3.96166 5.50251 3.98568 5.38799 3.96599 5.27677C3.8618 4.72019 3.9209 4.14535 4.13615 3.62161C4.1654 3.55178 4.20966 3.48924 4.26581 3.43845C4.32195 3.38765 4.38859 3.34984 4.46099 3.32771C4.63631 3.27614 5.26537 3.17302 6.45646 3.94646C7.42067 3.71443 8.42616 3.71443 9.39037 3.94646C10.5815 3.17302 11.2105 3.27099 11.3807 3.32771C11.4531 3.34984 11.5197 3.38765 11.5759 3.43845C11.632 3.48924 11.6763 3.55178 11.7055 3.62161C11.9212 4.14705 11.9803 4.72366 11.8757 5.28192C11.8651 5.33222 11.8647 5.38412 11.8745 5.43459C11.8842 5.48505 11.9039 5.53307 11.9324 5.57583C12.271 6.0862 12.4504 6.68557 12.448 7.29802C12.448 9.91224 10.9424 10.6702 9.8699 10.9074C9.96438 11.1841 10.0029 11.4768 9.98334 11.7685V13.0782C9.98357 13.2097 9.93352 13.3364 9.84341 13.4323C9.75331 13.5281 9.62997 13.5859 9.49865 13.5938V13.5938Z" fill="black"/>
</svg>
