<svg width="15" height="15" viewBox="0 0 15 15" fill="none" xmlns="http://www.w3.org/2000/svg">
<circle cx="7.5" cy="7.5" r="7.25" stroke="black" stroke-width="0.5"/>
<path d="M3.03808 11.2289C3.14908 11.2827 3.27366 11.3129 3.40529 11.3129H11.837C11.9686 11.3129 12.0932 11.2827 12.2042 11.2289L8.88288 8.10299L7.79981 8.99493C7.69603 9.08039 7.54625 9.08039 7.44247 8.99493L6.35941 8.10299L3.03808 11.2289ZM2.64255 10.8296C2.64515 10.8269 2.64782 10.8243 2.65055 10.8218L5.92198 7.74276L2.6645 5.06013C2.6574 5.05428 2.65066 5.04815 2.64428 5.04178C2.59161 5.15185 2.56211 5.27512 2.56211 5.40529V10.4697C2.56211 10.5984 2.59096 10.7204 2.64255 10.8296V10.8296ZM12.5997 10.8296C12.6513 10.7204 12.6802 10.5984 12.6802 10.4697V5.40529C12.6802 5.27512 12.6507 5.15185 12.598 5.04178C12.5916 5.04815 12.5849 5.05428 12.5778 5.06013L9.3203 7.74276L12.5917 10.8218C12.5945 10.8243 12.5971 10.8269 12.5997 10.8296ZM12.1992 4.64367C12.0895 4.59138 11.9667 4.56211 11.837 4.56211H3.40529C3.27562 4.56211 3.15279 4.59138 3.04304 4.64367L7.62114 8.41387L12.1992 4.64367ZM3.40529 4H11.837C12.6131 4 13.2423 4.62917 13.2423 5.40529V10.4697C13.2423 11.2458 12.6131 11.875 11.837 11.875H3.40529C2.62917 11.875 2 11.2458 2 10.4697V5.40529C2 4.62917 2.62917 4 3.40529 4V4Z" fill="black"/>
</svg>
